HIERARCHY
ROOT SpineBase
{
  OFFSET 0.000000 0.000000 0.000000
  CHANNELS 6 Xposition Yposition Zposition Zrotation Xrotation Yrotation
  JOINT SpineMid
  {
    OFFSET 0.000000 34.031684 0.000000
    CHANNELS 3 Zrotation Xrotation Yrotation
    JOINT SpineShoulder
    {
      OFFSET -0.241079 25.075537 -0.919002
      CHANNELS 3 Zrotation Xrotation Yrotation
      JOINT Neck
      {
        OFFSET -0.153301 8.254630 -0.673492
        CHANNELS 3 Zrotation Xrotation Yrotation
        JOINT Head
        {
          OFFSET 1.625184 11.878517 5.394217
          CHANNELS 3 Zrotation Xrotation Yrotation
          End Site
          {
            OFFSET 0 0 0
          }
        }
      }
      JOINT ShoulderLeft
      {
        OFFSET -16.176512 3.014040 16.329287
        CHANNELS 3 Zrotation Xrotation Yrotation
        JOINT ElbowLeft
        {
          OFFSET -2.422486 -15.913361 -24.710355
          CHANNELS 3 Zrotation Xrotation Yrotation
          JOINT WristLeft
          {
            OFFSET -1.584810 -23.705812 13.368067
            CHANNELS 3 Zrotation Xrotation Yrotation
            JOINT HandLeft
            {
              OFFSET -1.025521 -0.963969 -8.411515
              CHANNELS 3 Zrotation Xrotation Yrotation
              JOINT HandTipLeft
              {
                OFFSET -1.509391 -5.142639 -0.701643
                CHANNELS 3 Zrotation Xrotation Yrotation
                End Site
                {
                  OFFSET 0 0 0
                }
              }
              JOINT ThumbLeft
              {
                OFFSET 1.112401 2.584128 -5.484827
                CHANNELS 3 Zrotation Xrotation Yrotation
                End Site
                {
                  OFFSET 0 0 0
                }
              }
            }
          }
        }
      }
      JOINT ShoulderRight
      {
        OFFSET -3.410830 -5.931131 -14.022007
        CHANNELS 3 Zrotation Xrotation Yrotation
        JOINT ElbowRight
        {
          OFFSET -11.510324 -25.545679 -5.852365
          CHANNELS 3 Zrotation Xrotation Yrotation
          JOINT WristRight
          {
            OFFSET -10.121830 -22.238477 2.722749
            CHANNELS 3 Zrotation Xrotation Yrotation
            JOINT HandRight
            {
              OFFSET -1.955201 -8.615434 3.429410
              CHANNELS 3 Zrotation Xrotation Yrotation
              JOINT HandTipRight
              {
                OFFSET -3.821197 -7.749472 0.814475
                CHANNELS 3 Zrotation Xrotation Yrotation
                End Site
                {
                  OFFSET 0 0 0
                }
              }
              JOINT ThumbRight
              {
                OFFSET 5.643546 -1.214525 -1.441453
                CHANNELS 3 Zrotation Xrotation Yrotation
                End Site
                {
                  OFFSET 0 0 0
                }
              }
            }
          }
        }
      }
    }
  }
  JOINT HipLeft
  {
    OFFSET -3.013519 1.038550 -0.079229
    CHANNELS 3 Zrotation Xrotation Yrotation
    JOINT KneeLeft
    {
      OFFSET -14.030549 -40.560217 -12.280591
      CHANNELS 3 Zrotation Xrotation Yrotation
      JOINT AnkleLeft
      {
        OFFSET -3.241549 -35.366703 -1.961574
        CHANNELS 3 Zrotation Xrotation Yrotation
        JOINT FootLeft
        {
          OFFSET -2.412552 -0.247747 10.764434
          CHANNELS 3 Zrotation Xrotation Yrotation
          End Site
          {
            OFFSET 0 0 0
          }
        }
      }
    }
  }
  JOINT HipRight
  {
    OFFSET 1.306510 1.323299 -6.859446
    CHANNELS 3 Zrotation Xrotation Yrotation
    JOINT KneeRight
    {
      OFFSET -18.767417 -35.772768 -4.869921
      CHANNELS 3 Zrotation Xrotation Yrotation
      JOINT AnkleRight
      {
        OFFSET -1.899581 -38.810035 -4.627178
        CHANNELS 3 Zrotation Xrotation Yrotation
        JOINT FootRight
        {
          OFFSET -5.318814 -7.698963 0.352499
          CHANNELS 3 Zrotation Xrotation Yrotation
          End Site
          {
            OFFSET 0 0 0
          }
        }
      }
    }
  }
}
MOTION
Frames: 5
Frame Time: 0.033333
57.371040 82.096726 221.197686 1.978450 -1.355089 59.315508 -0.097507 -0.067105 -59.231631 0.161918 -0.013149 0.087031 2.008191 -2.733873 -1.417203 0.000000 0.000000 0.000000 -2.144565 1.491617 -0.119540 -0.000000 0.000000 0.000000 1.584076 -14.411085 -15.089581 11.646309 -11.321677 23.187777 0.000000 0.000000 0.000000 0.000000 0.000000 0.000000 -0.941472 -0.210546 0.360337 -1.866045 -2.739877 1.454838 0.715482 10.502434 -3.478008 14.377799 -17.269570 11.999735 0.000000 0.000000 0.000000 0.000000 0.000000 0.000000 1.240987 -0.418832 -60.048041 22.100226 -42.580345 13.873099 39.426478 64.653801 -110.352755 0.000000 0.000000 0.000000 -4.534975 3.121856 -56.763673 3.150909 1.893859 -2.327971 -32.622780 28.555670 -9.701161 0.000000 0.000000 0.000000
57.658020 81.933576 220.256765 2.097623 -1.533257 57.888592 -0.039204 -0.047122 -57.797506 0.142061 0.025341 0.090262 2.100692 -2.560620 -1.536425 0.000000 0.000000 0.000000 -2.254536 1.572040 -0.124023 -0.000000 0.000000 0.000000 1.547718 -15.704891 -16.057120 11.314416 -9.712915 23.800558 0.000000 0.000000 0.000000 0.000000 0.000000 0.000000 -0.838578 -0.007316 0.244960 -1.924206 -2.527263 1.429689 -0.118058 10.131791 -3.497605 13.627591 -16.217793 11.145557 0.000000 0.000000 0.000000 0.000000 0.000000 0.000000 0.438305 0.068040 -58.172175 23.378993 -42.911209 13.701147 41.460273 61.008622 -125.925760 0.000000 0.000000 0.000000 -4.980868 3.621316 -55.120760 3.953997 1.404741 -2.514020 -32.289085 26.198345 -8.490753 0.000000 0.000000 0.000000
57.949761 81.692700 219.249752 2.217122 -1.596523 56.028030 -0.003969 -0.008651 -55.931095 0.130805 0.044879 0.094032 2.175313 -2.428995 -1.643824 0.000000 0.000000 0.000000 -2.348421 1.566219 -0.130636 -0.000000 0.000000 0.000000 1.494303 -16.730000 -17.065744 11.013292 -8.091958 24.372872 0.000000 0.000000 0.000000 0.000000 0.000000 0.000000 -0.803587 0.101150 0.153327 -1.954454 -2.174124 1.313238 -0.555290 9.387314 -3.309573 8.420442 -16.458893 9.496373 0.000000 0.000000 0.000000 0.000000 0.000000 0.000000 -0.831335 0.418246 -55.686524 24.855214 -42.636201 13.083374 37.872373 56.739187 -138.869879 0.000000 0.000000 0.000000 -5.612034 4.081638 -53.040666 4.861437 0.837006 -2.700492 -29.323108 20.752399 -6.609523 0.000000 0.000000 0.000000
58.205785 81.392110 218.288113 2.292648 -1.645682 54.176111 -0.004463 0.004365 -54.075165 0.124980 0.044193 0.096078 2.215590 -2.279374 -1.713513 0.000000 0.000000 0.000000 -2.406776 1.609337 -0.132903 -0.000000 0.000000 0.000000 1.426235 -17.971555 -17.808915 9.545174 -5.247539 24.222599 0.000000 0.000000 0.000000 0.000000 0.000000 0.000000 -0.739608 0.134913 0.124061 -2.009474 -1.633498 1.108917 -0.657727 8.946065 -3.098371 6.156522 -15.439745 8.149388 0.000000 0.000000 0.000000 0.000000 0.000000 0.000000 -2.300947 0.645552 -53.107646 26.711272 -41.966951 12.237544 30.760472 53.625375 -147.221626 0.000000 0.000000 0.000000 -6.288782 4.445052 -50.953968 5.724727 0.343427 -2.898154 -28.652758 19.836219 -5.921665 0.000000 0.000000 0.000000
58.411548 81.071111 217.448773 2.322545 -1.693266 52.808710 -0.018238 0.000674 -52.705712 0.123988 0.038263 0.096500 2.214728 -2.085248 -1.750340 0.000000 0.000000 0.000000 -2.430068 1.676003 -0.131829 -0.000000 0.000000 0.000000 1.386066 -18.437203 -18.290482 7.878530 -2.186253 23.586606 0.000000 0.000000 0.000000 0.000000 0.000000 0.000000 -0.645702 0.143531 0.121464 -2.068450 -1.006552 0.863618 -0.196811 8.548130 -2.724916 -0.508650 -14.777458 5.556156 0.000000 0.000000 0.000000 0.000000 0.000000 0.000000 -3.717739 0.809317 -51.025584 28.745562 -41.055460 11.305854 22.280486 52.300355 -149.416647 0.000000 0.000000 0.000000 -6.863566 4.773524 -49.385410 6.506022 -0.189623 -3.059670 -29.098582 21.389044 -5.984092 0.000000 0.000000 0.000000
